Metropolis-Regular.ufo
<glyph name="ampersand" format="2">
	<advance width="705"/>
	<unicode hex="0026"/>
	<outline>
		<contour>
			<point x="277" y="-12" type="curve"/>
			<point x="277" y="-12" type="line"/>
			<point x="447" y="-12"/>
			<point x="547" y="133"/>
			<point x="629" y="316" type="curve"/>
			<point x="564" y="345" type="line"/>
			<point x="503" y="184"/>
			<point x="405" y="55"/>
			<point x="280" y="55" type="curve"/>
			<point x="202" y="55"/>
			<point x="136" y="103"/>
			<point x="136" y="184" type="curve"/>
			<point x="136" y="258"/>
			<point x="198" y="313"/>
			<point x="294" y="349" type="curve"/>
			<point x="410" y="393"/>
			<point x="497" y="434"/>
			<point x="497" y="536" type="curve"/>
			<point x="497" y="622"/>
			<point x="427" y="695"/>
			<point x="335" y="695" type="curve"/>
			<point x="232" y="695"/>
			<point x="160" y="624"/>
			<point x="160" y="534" type="curve"/>
			<point x="160" y="474"/>
			<point x="186" y="421"/>
			<point x="241" y="353" type="curve"/>
			<point x="315" y="261"/>
			<point x="394" y="177"/>
			<point x="577" y="-7" type="curve"/>
			<point x="648" y="26" type="line"/>
			<point x="478" y="198"/>
			<point x="395" y="284"/>
			<point x="308" y="388" type="curve"/>
			<point x="258" y="446"/>
			<point x="235" y="493"/>
			<point x="235" y="534" type="curve"/>
			<point x="235" y="593"/>
			<point x="278" y="628"/>
			<point x="335" y="628" type="curve"/>
			<point x="386" y="628"/>
			<point x="422" y="587"/>
			<point x="422" y="534" type="curve"/>
			<point x="422" y="470"/>
			<point x="370" y="440"/>
			<point x="251" y="396" type="curve"/>
			<point x="123" y="349"/>
			<point x="61" y="280"/>
			<point x="61" y="182" type="curve"/>
			<point x="61" y="62"/>
			<point x="155" y="-12"/>
		</contour>
	</outline>
</glyph>
<glyph name="quotesingle" format="2">
	<advance width="220"/>
	<unicode hex="0027"/>
	<outline>
		<contour>
			<point x="88" y="429" type="curve"/>
			<point x="88" y="429" type="line"/>
			<point x="132" y="429" type="line"/>
			<point x="140" y="487"/>
			<point x="156" y="579"/>
			<point x="156" y="629" type="curve"/>
			<point x="156" y="654"/>
			<point x="135" y="675"/>
			<point x="110" y="675" type="curve"/>
			<point x="85" y="675"/>
			<point x="64" y="654"/>
			<point x="64" y="629" type="curve"/>
			<point x="64" y="579"/>
			<point x="80" y="487"/>
		</contour>
	</outline>
</glyph>
<glyph name="plus" format="2">
	<advance width="581"/>
	<unicode hex="002B"/>
	<outline>
		<contour>
			<point x="61" y="371" type="line"/>
			<point x="61" y="297" type="line"/>
			<point x="520" y="297" type="line"/>
			<point x="520" y="371" type="line"/>
		</contour>
		<contour>
			<point x="253" y="564" type="line"/>
			<point x="253" y="105" type="line"/>
			<point x="328" y="105" type="line"/>
			<point x="328" y="564" type="line"/>
		</contour>
	</outline>
</glyph>
<glyph name="comma" format="2">
	<advance width="230"/>
	<unicode hex="002C"/>
	<outline>
		<contour>
			<point x="59" y="-105" type="curve"/>
			<point x="96" y="-133" type="line"/>
			<point x="156" y="-58"/>
			<point x="173" y="-24"/>
			<point x="173" y="16" type="curve"/>
			<point x="173" y="62"/>
			<point x="150" y="96"/>
			<point x="112" y="96" type="curve"/>
			<point x="80" y="96"/>
			<point x="57" y="71"/>
			<point x="57" y="43" type="curve"/>
			<point x="57" y="13"/>
			<point x="81" y="-12"/>
			<point x="111" y="-12" type="curve"/>
			<point x="103" y="-43"/>
			<point x="86" y="-74"/>
		</contour>
	</outline>
</glyph>
<glyph name="period" format="2">
	<advance width="225"/>
	<unicode hex="002E"/>
	<outline>
		<contour>
			<point x="113" y="-12" type="curve"/>
			<point x="113" y="-12" type="line"/>
			<point x="142" y="-12"/>
			<point x="166" y="13"/>
			<point x="166" y="43" type="curve"/>
			<point x="166" y="71"/>
			<point x="142" y="96"/>
			<point x="113" y="96" type="curve"/>
			<point x="82" y="96"/>
			<point x="58" y="71"/>
			<point x="58" y="43" type="curve"/>
			<point x="58" y="13"/>
			<point x="82" y="-12"/>
		</contour>
	</outline>
</glyph>
<glyph name="zero" format="2">
	<advance width="683"/>
	<unicode hex="0030"/>
	<outline>
		<contour>
			<point x="342" y="-12" type="curve"/>
			<point x="342" y="-12" type="line"/>
			<point x="509" y="-12"/>
			<point x="627" y="135"/>
			<point x="627" y="344" type="curve"/>
			<point x="627" y="552"/>
			<point x="509" y="699"/>
			<point x="342" y="699" type="curve"/>
			<point x="174" y="699"/>
			<point x="56" y="552"/>
			<point x="56" y="344" type="curve"/>
			<point x="56" y="135"/>
			<point x="174" y="-12"/>
		</contour>
		<contour>
			<point x="342" y="60" type="curve"/>
			<point x="342" y="60" type="line"/>
			<point x="221" y="60"/>
			<point x="135" y="178"/>
			<point x="135" y="344" type="curve"/>
			<point x="135" y="510"/>
			<point x="221" y="627"/>
			<point x="342" y="627" type="curve"/>
			<point x="463" y="627"/>
			<point x="548" y="510"/>
			<point x="548" y="344" type="curve"/>
			<point x="548" y="178"/>
			<point x="463" y="60"/>
		</contour>
	</outline>
</glyph>
<glyph name="two" format="2">
	<advance width="579"/>
	<unicode hex="0032"/>
	<outline>
		<contour>
			<point x="50" y="65" type="line"/>
			<point x="50" y="0" type="line"/>
			<point x="524" y="0" type="line"/>
			<point x="524" y="74" type="line"/>
			<point x="175" y="74" type="line"/>
			<point x="355" y="230" type="line" smooth="yes"/>
			<point x="471" y="330"/>
			<point x="517" y="404"/>
			<point x="517" y="497" type="curve"/>
			<point x="517" y="620"/>
			<point x="417" y="699"/>
			<point x="298" y="699" type="curve"/>
			<point x="190" y="699"/>
			<point x="113" y="648"/>
			<point x="56" y="567" type="curve"/>
			<point x="111" y="522" type="line"/>
			<point x="158" y="586"/>
			<point x="215" y="629"/>
			<point x="295" y="629" type="curve"/>
			<point x="368" y="629"/>
			<point x="438" y="580"/>
			<point x="438" y="496" type="curve"/>
			<point x="438" y="428"/>
			<point x="398" y="362"/>
			<point x="301" y="279" type="curve"/>
		</contour>
	</outline>
</glyph>
<glyph name="three" format="2">
	<advance width="590"/>
	<unicode hex="0033"/>
	<outline>
		<contour>
			<point x="297" y="-12" type="curve"/>
			<point x="297" y="-12" type="line"/>
			<point x="440" y="-12"/>
			<point x="536" y="71"/>
			<point x="536" y="186" type="curve"/>
			<point x="536" y="285"/>
			<point x="458" y="336"/>
			<point x="388" y="352" type="curve"/>
			<point x="459" y="373"/>
			<point x="521" y="425"/>
			<point x="521" y="513" type="curve"/>
			<point x="521" y="623"/>
			<point x="425" y="699"/>
			<point x="294" y="699" type="curve"/>
			<point x="187" y="699"/>
			<point x="111" y="647"/>
			<point x="59" y="578" type="curve"/>
			<point x="111" y="531" type="line"/>
			<point x="160" y="590"/>
			<point x="214" y="628"/>
			<point x="290" y="628" type="curve"/>
			<point x="376" y="628"/>
			<point x="442" y="576"/>
			<point x="442" y="504" type="curve"/>
			<point x="442" y="426"/>
			<point x="373" y="382"/>
			<point x="281" y="383" type="curve"/>
			<point x="207" y="384" type="line"/>
			<point x="207" y="312" type="line"/>
			<point x="280" y="312" type="line" smooth="yes"/>
			<point x="388" y="312"/>
			<point x="457" y="271"/>
			<point x="457" y="190" type="curve"/>
			<point x="457" y="112"/>
			<point x="393" y="59"/>
			<point x="297" y="59" type="curve"/>
			<point x="213" y="59"/>
			<point x="146" y="99"/>
			<point x="101" y="157" type="curve"/>
			<point x="47" y="106" type="line"/>
			<point x="97" y="40"/>
			<point x="184" y="-12"/>
		</contour>
	</outline>
</glyph>
<glyph name="seven" format="2">
	<advance width="563"/>
	<unicode hex="0037"/>
	<outline>
		<contour>
			<point x="421" y="613" type="line"/>
			<point x="128" y="0" type="line"/>
			<point x="218" y="0" type="line"/>
			<point x="514" y="628" type="line"/>
			<point x="514" y="687" type="line"/>
			<point x="49" y="687" type="line"/>
			<point x="49" y="613" type="line"/>
		</contour>
	</outline>
</glyph>
<glyph name="equal" format="2">
	<advance width="629"/>
	<unicode hex="003D"/>
	<outline>
		<contour>
			<point x="85" y="481" type="line"/>
			<point x="85" y="407" type="line"/>
			<point x="544" y="407" type="line"/>
			<point x="544" y="481" type="line"/>
		</contour>
		<contour>
			<point x="85" y="261" type="line"/>
			<point x="85" y="187" type="line"/>
			<point x="544" y="187" type="line"/>
			<point x="544" y="261" type="line"/>
		</contour>
	</outline>
</glyph>
<glyph name="greater" format="2">
	<advance width="582"/>
	<unicode hex="003E"/>
	<outline>
		<contour>
			<point x="67" y="159" type="line"/>
			<point x="67" y="88" type="line"/>
			<point x="522" y="314" type="line"/>
			<point x="522" y="373" type="line"/>
			<point x="67" y="599" type="line"/>
			<point x="67" y="529" type="line"/>
			<point x="448" y="344" type="line"/>
		</contour>
	</outline>
</glyph>
<glyph name="B" format="2">
	<advance width="661"/>
	<unicode hex="0042"/>
	<outline>
		<contour>
			<point x="78" y="687" type="line"/>
			<point x="78" y="0" type="line"/>
			<point x="405" y="0" type="line" smooth="yes"/>
			<point x="524" y="0"/>
			<point x="609" y="78"/>
			<point x="609" y="188" type="curve"/>
			<point x="609" y="263"/>
			<point x="563" y="325"/>
			<point x="484" y="365" type="curve"/>
			<point x="546" y="401"/>
			<point x="582" y="443"/>
			<point x="582" y="516" type="curve"/>
			<point x="582" y="616"/>
			<point x="504" y="687"/>
			<point x="393" y="687" type="curve"/>
		</contour>
		<contour>
			<point x="385" y="71" type="curve"/>
			<point x="156" y="71" type="line"/>
			<point x="156" y="325" type="line"/>
			<point x="385" y="325" type="line" smooth="yes"/>
			<point x="470" y="325"/>
			<point x="530" y="272"/>
			<point x="530" y="198" type="curve"/>
			<point x="530" y="124"/>
			<point x="470" y="71"/>
		</contour>
		<contour>
			<point x="373" y="396" type="curve"/>
			<point x="156" y="396" type="line"/>
			<point x="156" y="616" type="line"/>
			<point x="373" y="616" type="line" smooth="yes"/>
			<point x="449" y="616"/>
			<point x="503" y="570"/>
			<point x="503" y="506" type="curve"/>
			<point x="503" y="442"/>
			<point x="449" y="396"/>
		</contour>
	</outline>
</glyph>
<glyph name="D" format="2">
	<advance width="736"/>
	<unicode hex="0044"/>
	<anchor x="310" y="687" name="top"/>
	<outline>
		<contour>
			<point x="78" y="687" type="line"/>
			<point x="78" y="0" type="line"/>
			<point x="310" y="0" type="line" smooth="yes"/>
			<point x="528" y="0"/>
			<point x="682" y="143"/>
			<point x="682" y="344" type="curve"/>
			<point x="682" y="545"/>
			<point x="528" y="687"/>
			<point x="310" y="687" type="curve"/>
		</contour>
		<contour>
			<point x="310" y="71" type="curve"/>
			<point x="156" y="71" type="line"/>
			<point x="156" y="616" type="line"/>
			<point x="310" y="616" type="line" smooth="yes"/>
			<point x="482" y="616"/>
			<point x="603" y="503"/>
			<point x="603" y="344" type="curve"/>
			<point x="603" y="184"/>
			<point x="482" y="71"/>
		</contour>
	</outline>
</glyph>
<glyph name="R" format="2">
	<advance width="662"/>
	<unicode hex="0052"/>
	<anchor x="303" y="687" name="top"/>
	<anchor x="303" y="0" name="bottom"/>
	<outline>
		<contour>
			<point x="293" y="269" type="line"/>
			<point x="482" y="0" type="line"/>
			<point x="571" y="0" type="line"/>
			<point x="382" y="269" type="line"/>
		</contour>
		<contour>
			<point x="78" y="687" type="line"/>
			<point x="78" y="0" type="line"/>
			<point x="156" y="0" type="line"/>
			<point x="156" y="247" type="line"/>
			<point x="357" y="247" type="line" smooth="yes"/>
			<point x="499" y="247"/>
			<point x="610" y="338"/>
			<point x="610" y="467" type="curve"/>
			<point x="610" y="596"/>
			<point x="499" y="687"/>
			<point x="357" y="687" type="curve"/>
		</contour>
		<contour>
			<point x="343" y="321" type="curve"/>
			<point x="156" y="321" type="line"/>
			<point x="156" y="613" type="line"/>
			<point x="343" y="613" type="line" smooth="yes"/>
			<point x="455" y="613"/>
			<point x="531" y="559"/>
			<point x="531" y="467" type="curve"/>
			<point x="531" y="375"/>
			<point x="455" y="321"/>
		</contour>
	</outline>
</glyph>
<glyph name="X" format="2">
	<advance width="717"/>
	<unicode hex="0058"/>
	<outline>
		<contour>
			<point x="48" y="687" type="line"/>
			<point x="573" y="0" type="line"/>
			<point x="669" y="0" type="line"/>
			<point x="144" y="687" type="line"/>
		</contour>
		<contour>
			<point x="574" y="687" type="line"/>
			<point x="48" y="0" type="line"/>
			<point x="143" y="0" type="line"/>
			<point x="669" y="687" type="line"/>
		</contour>
	</outline>
</glyph>
<glyph name="bracketleft" format="2">
	<advance width="365"/>
	<unicode hex="005B"/>
	<outline>
		<contour>
			<point x="78" y="734" type="line"/>
			<point x="78" y="-115" type="line"/>
			<point x="314" y="-115" type="line"/>
			<point x="314" y="-58" type="line"/>
			<point x="144" y="-58" type="line"/>
			<point x="144" y="677" type="line"/>
			<point x="314" y="677" type="line"/>
			<point x="314" y="734" type="line"/>
		</contour>
	</outline>
</glyph>
<glyph name="bracketright" format="2">
	<advance width="365"/>
	<unicode hex="005D"/>
	<outline>
		<contour>
			<point x="51" y="-58" type="line"/>
			<point x="51" y="-115" type="line"/>
			<point x="287" y="-115" type="line"/>
			<point x="287" y="734" type="line"/>
			<point x="51" y="734" type="line"/>
			<point x="51" y="677" type="line"/>
			<point x="221" y="677" type="line"/>
			<point x="221" y="-58" type="line"/>
		</contour>
	</outline>
</glyph>
<glyph name="underscore" format="2">
	<advance width="692"/>
	<unicode hex="005F"/>
	<outline>
		<contour>
			<point x="48" y="-75" type="line"/>
			<point x="48" y="-142" type="line"/>
			<point x="644" y="-142" type="line"/>
			<point x="644" y="-75" type="line"/>
		</contour>
	</outline>
</glyph>
<glyph name="c" format="2">
	<advance width="519"/>
	<unicode hex="0063"/>
	<anchor x="283" y="517" name="top"/>
	<anchor x="293" y="0" name="bottom"/>
	<outline>
		<contour>
			<point x="303" y="-12" type="curve"/>
			<point x="303" y="-12" type="line"/>
			<point x="375" y="-12"/>
			<point x="441" y="18"/>
			<point x="490" y="67" type="curve"/>
			<point x="438" y="118" type="line"/>
			<point x="403" y="79"/>
			<point x="355" y="55"/>
			<point x="303" y="55" type="curve"/>
			<point x="200" y="55"/>
			<point x="114" y="148"/>
			<point x="114" y="259" type="curve"/>
			<point x="114" y="369"/>
			<point x="200" y="462"/>
			<point x="303" y="462" type="curve"/>
			<point x="354" y="462"/>
			<point x="401" y="439"/>
			<point x="435" y="402" type="curve"/>
			<point x="487" y="453" type="line"/>
			<point x="438" y="500"/>
			<point x="373" y="529"/>
			<point x="303" y="529" type="curve"/>
			<point x="158" y="529"/>
			<point x="35" y="406"/>
			<point x="35" y="259" type="curve"/>
			<point x="35" y="112"/>
			<point x="158" y="-12"/>
		</contour>
	</outline>
</glyph>
<glyph name="s" format="2">
	<advance width="465"/>
	<unicode hex="0073"/>
	<anchor x="235" y="517" name="top"/>
	<anchor x="232" y="0" name="bottom"/>
	<outline>
		<contour>
			<point x="243" y="-12" type="curve"/>
			<point x="243" y="-12" type="line"/>
			<point x="350" y="-12"/>
			<point x="432" y="49"/>
			<point x="432" y="144" type="curve"/>
			<point x="432" y="242"/>
			<point x="346" y="270"/>
			<point x="263" y="296" type="curve"/>
			<point x="167" y="327"/>
			<point x="129" y="341"/>
			<point x="129" y="386" type="curve"/>
			<point x="129" y="436"/>
			<point x="177" y="462"/>
			<point x="235" y="462" type="curve"/>
			<point x="281" y="462"/>
			<point x="332" y="446"/>
			<point x="384" y="413" type="curve"/>
			<point x="420" y="471" type="line"/>
			<point x="365" y="507"/>
			<point x="299" y="529"/>
			<point x="235" y="529" type="curve"/>
			<point x="132" y="529"/>
			<point x="54" y="471"/>
			<point x="54" y="377" type="curve"/>
			<point x="54" y="303"/>
			<point x="102" y="266"/>
			<point x="227" y="230" type="curve"/>
			<point x="297" y="210"/>
			<point x="357" y="192"/>
			<point x="357" y="136" type="curve"/>
			<point x="357" y="87"/>
			<point x="311" y="55"/>
			<point x="243" y="55" type="curve"/>
			<point x="186" y="55"/>
			<point x="127" y="77"/>
			<point x="68" y="120" type="curve"/>
			<point x="29" y="65" type="line"/>
			<point x="91" y="15"/>
			<point x="171" y="-12"/>
		</contour>
	</outline>
</glyph>
<glyph name="t" format="2">
	<advance width="362"/>
	<unicode hex="0074"/>
	<anchor x="239" y="0" name="bottom"/>
	<outline>
		<contour>
			<point x="237" y="-12" type="curve"/>
			<point x="237" y="-12" type="line"/>
			<point x="272" y="-12"/>
			<point x="306" y="0"/>
			<point x="333" y="21" type="curve"/>
			<point x="296" y="76" type="line"/>
			<point x="285" y="64"/>
			<point x="265" y="55"/>
			<point x="242" y="55" type="curve"/>
			<point x="212" y="55"/>
			<point x="186" y="82"/>
			<point x="186" y="120" type="curve"/>
			<point x="186" y="659" type="line"/>
			<point x="111" y="659" type="line"/>
			<point x="111" y="120" type="line" smooth="yes"/>
			<point x="111" y="43"/>
			<point x="163" y="-12"/>
		</contour>
		<contour>
			<point x="30" y="517" type="line"/>
			<point x="30" y="450" type="line"/>
			<point x="313" y="450" type="line"/>
			<point x="313" y="517" type="line"/>
		</contour>
	</outline>
</glyph>
<glyph name="v" format="2">
	<advance width="565"/>
	<unicode hex="0076"/>
	<outline>
		<contour>
			<point x="28" y="517" type="line"/>
			<point x="248" y="0" type="line"/>
			<point x="320" y="0" type="line"/>
			<point x="537" y="517" type="line"/>
			<point x="453" y="517" type="line"/>
			<point x="284" y="88" type="line"/>
			<point x="112" y="517" type="line"/>
		</contour>
	</outline>
</glyph>
<glyph name="braceleft" format="2">
	<advance width="402"/>
	<unicode hex="007B"/>
	<outline>
		<contour>
			<point x="346" y="-166" type="curve"/>
			<point x="346" y="-166" type="line"/>
			<point x="352" y="-113" type="line"/>
			<point x="235" y="-95"/>
			<point x="210" y="-73"/>
			<point x="210" y="8" type="curve"/>
			<point x="211" y="151" type="line" smooth="yes"/>
			<point x="211" y="214"/>
			<point x="186" y="248"/>
			<point x="136" y="266" type="curve"/>
			<point x="185" y="283"/>
			<point x="211" y="317"/>
			<point x="211" y="380" type="curve"/>
			<point x="210" y="524" type="line" smooth="yes"/>
			<point x="210" y="603"/>
			<point x="233" y="626"/>
			<point x="352" y="644" type="curve"/>
			<point x="346" y="697" type="line"/>
			<point x="192" y="680"/>
			<point x="145" y="632"/>
			<point x="145" y="528" type="curve"/>
			<point x="145" y="388" type="line" smooth="yes"/>
			<point x="145" y="322"/>
			<point x="119" y="293"/>
			<point x="47" y="293" type="curve"/>
			<point x="47" y="238" type="line"/>
			<point x="118" y="238"/>
			<point x="145" y="211"/>
			<point x="145" y="144" type="curve"/>
			<point x="145" y="3" type="line" smooth="yes"/>
			<point x="145" y="-100"/>
			<point x="191" y="-149"/>
		</contour>
	</outline>
</glyph>
<glyph name="cent" format="2">
	<advance width="595"/>
	<unicode hex="00A2"/>
	<anchor x="321" y="517" name="top"/>
	<anchor x="331" y="0" name="bottom"/>
	<outline>
		<contour>
			<point x="302" y="589" type="line"/>
			<point x="302" y="-74" type="line"/>
			<point x="380" y="-74" type="line"/>
			<point x="380" y="589" type="line"/>
		</contour>
		<contour>
			<point x="341" y="-12" type="curve"/>
			<point x="341" y="-12" type="line"/>
			<point x="413" y="-12"/>
			<point x="479" y="18"/>
			<point x="528" y="67" type="curve"/>
			<point x="476" y="118" type="line"/>
			<point x="441" y="79"/>
			<point x="393" y="55"/>
			<point x="341" y="55" type="curve"/>
			<point x="238" y="55"/>
			<point x="152" y="148"/>
			<point x="152" y="259" type="curve"/>
			<point x="152" y="369"/>
			<point x="238" y="462"/>
			<point x="341" y="462" type="curve"/>
			<point x="392" y="462"/>
			<point x="439" y="439"/>
			<point x="473" y="402" type="curve"/>
			<point x="525" y="453" type="line"/>
			<point x="476" y="500"/>
			<point x="411" y="529"/>
			<point x="341" y="529" type="curve"/>
			<point x="196" y="529"/>
			<point x="73" y="406"/>
			<point x="73" y="259" type="curve"/>
			<point x="73" y="112"/>
			<point x="196" y="-12"/>
		</contour>
	</outline>
</glyph>
<glyph name="yen" format="2">
	<advance width="767"/>
	<unicode hex="00A5"/>
	<anchor x="384" y="687" name="top"/>
	<outline>
		<contour>
			<point x="136" y="182" type="line"/>
			<point x="136" y="115" type="line"/>
			<point x="632" y="115" type="line"/>
			<point x="632" y="182" type="line"/>
		</contour>
		<contour>
			<point x="136" y="329" type="line"/>
			<point x="136" y="262" type="line"/>
			<point x="632" y="262" type="line"/>
			<point x="632" y="329" type="line"/>
		</contour>
		<contour>
			<point x="343" y="280" type="line"/>
			<point x="343" y="0" type="line"/>
			<point x="425" y="0" type="line"/>
			<point x="425" y="280" type="line"/>
			<point x="701" y="687" type="line"/>
			<point x="607" y="687" type="line"/>
			<point x="384" y="354" type="line"/>
			<point x="163" y="687" type="line"/>
			<point x="66" y="687" type="line"/>
		</contour>
	</outline>
</glyph>
<glyph name="dieresis" format="2">
	<advance width="362"/>
	<unicode hex="00A8"/>
	<anchor x="181" y="704" name="top"/>
	<anchor x="181" y="517" name="_top"/>
	<outline>
		<contour>
			<point x="85" y="597" type="curve"/>
			<point x="85" y="597" type="line"/>
			<point x="110" y="597"/>
			<point x="131" y="618"/>
			<point x="131" y="643" type="curve"/>
			<point x="131" y="667"/>
			<point x="110" y="689"/>
			<point x="85" y="689" type="curve"/>
			<point x="59" y="689"/>
			<point x="39" y="667"/>
			<point x="39" y="643" type="curve"/>
			<point x="39" y="618"/>
			<point x="59" y="597"/>
		</contour>
		<contour>
			<point x="277" y="597" type="curve"/>
			<point x="277" y="597" type="line"/>
			<point x="302" y="597"/>
			<point x="323" y="618"/>
			<point x="323" y="643" type="curve"/>
			<point x="323" y="667"/>
			<point x="302" y="689"/>
			<point x="277" y="689" type="curve"/>
			<point x="251" y="689"/>
			<point x="231" y="667"/>
			<point x="231" y="643" type="curve"/>
			<point x="231" y="618"/>
			<point x="251" y="597"/>
		</contour>
	</outline>
</glyph>
<glyph name="paragraph" format="2">
	<advance width="621"/>
	<unicode hex="00B6"/>
	<outline>
		<contour>
			<point x="292" y="297" type="curve"/>
			<point x="292" y="-50" type="line"/>
			<point x="354" y="-50" type="line"/>
			<point x="354" y="629" type="line"/>
			<point x="471" y="629" type="line"/>
			<point x="471" y="-50" type="line"/>
			<point x="533" y="-50" type="line"/>
			<point x="533" y="687" type="line"/>
			<point x="279" y="687" type="line"/>
			<point x="152" y="687"/>
			<point x="61" y="607"/>
			<point x="61" y="491" type="curve"/>
			<point x="61" y="377"/>
			<point x="153" y="297"/>
		</contour>
	</outline>
</glyph>
<glyph name="AE" format="2">
	<advance width="1037"/>
	<unicode hex="00C6"/>
	<outline>
		<contour>
			<point x="442" y="687" type="line"/>
			<point x="46" y="0" type="line"/>
			<point x="136" y="0" type="line"/>
			<point x="226" y="156" type="line"/>
			<point x="490" y="156" type="line"/>
			<point x="490" y="0" type="line"/>
			<point x="983" y="0" type="line"/>
			<point x="983" y="74" type="line"/>
			<point x="569" y="74" type="line"/>
			<point x="569" y="313" type="line"/>
			<point x="942" y="313" type="line"/>
			<point x="942" y="387" type="line"/>
			<point x="569" y="387" type="line"/>
			<point x="569" y="613" type="line"/>
			<point x="983" y="613" type="line"/>
			<point x="983" y="687" type="line"/>
		</contour>
		<contour>
			<point x="490" y="230" type="line"/>
			<point x="269" y="230" type="line"/>
			<point x="490" y="613" type="line"/>
		</contour>
	</outline>
</glyph>
<glyph name="multiply" format="2">
	<advance width="497"/>
	<unicode hex="00D7"/>
	<outline>
		<contour>
			<point x="60" y="198" type="line"/>
			<point x="113" y="146" type="line"/>
			<point x="437" y="470" type="line"/>
			<point x="385" y="523" type="line"/>
		</contour>
		<contour>
			<point x="60" y="470" type="line"/>
			<point x="384" y="146" type="line"/>
			<point x="437" y="199" type="line"/>
			<point x="113" y="523" type="line"/>
		</contour>
	</outline>
</glyph>
<glyph name="eth" format="2">
	<advance width="580"/>
	<unicode hex="00F0"/>
	<outline>
		<contour>
			<point x="291" y="56" type="curve"/>
			<point x="291" y="56" type="line"/>
			<point x="187" y="56"/>
			<point x="114" y="135"/>
			<point x="114" y="247" type="curve"/>
			<point x="114" y="355"/>
			<point x="186" y="432"/>
			<point x="288" y="432" type="curve"/>
			<point x="396" y="432"/>
			<point x="464" y="348"/>
			<point x="464" y="245" type="curve"/>
			<point x="464" y="134"/>
			<point x="392" y="56"/>
		</contour>
		<contour>
			<point x="238" y="716" type="curve"/>
			<point x="162" y="685" type="line"/>
			<point x="275" y="609"/>
			<point x="383" y="519"/>
			<point x="436" y="417" type="curve"/>
			<point x="393" y="468"/>
			<point x="339" y="498"/>
			<point x="269" y="498" type="curve"/>
			<point x="133" y="498"/>
			<point x="36" y="394"/>
			<point x="36" y="248" type="curve"/>
			<point x="36" y="96"/>
			<point x="142" y="-12"/>
			<point x="291" y="-12" type="curve"/>
			<point x="439" y="-12"/>
			<point x="543" y="104"/>
			<point x="543" y="269" type="curve"/>
			<point x="543" y="441"/>
			<point x="437" y="562"/>
		</contour>
		<contour>
			<point x="152" y="587" type="line"/>
			<point x="179" y="525" type="line"/>
			<point x="437" y="640" type="line"/>
			<point x="410" y="702" type="line"/>
		</contour>
	</outline>
</glyph>
<glyph name="dcaron" format="2">
	<advance width="704"/>
	<unicode hex="010F"/>
	<outline>
		<contour>
			<point x="275" y="-12" type="curve"/>
			<point x="275" y="-12" type="line"/>
			<point x="412" y="-12"/>
			<point x="502" y="100"/>
			<point x="502" y="259" type="curve"/>
			<point x="502" y="417"/>
			<point x="412" y="529"/>
			<point x="275" y="529" type="curve"/>
			<point x="139" y="529"/>
			<point x="37" y="417"/>
			<point x="37" y="259" type="curve"/>
			<point x="37" y="100"/>
			<point x="139" y="-12"/>
		</contour>
		<contour>
			<point x="289" y="55" type="curve"/>
			<point x="289" y="55" type="line"/>
			<point x="188" y="55"/>
			<point x="116" y="140"/>
			<point x="116" y="259" type="curve"/>
			<point x="116" y="378"/>
			<point x="188" y="462"/>
			<point x="289" y="462" type="curve"/>
			<point x="391" y="462"/>
			<point x="463" y="378"/>
			<point x="463" y="259" type="curve"/>
			<point x="463" y="140"/>
			<point x="391" y="55"/>
		</contour>
		<contour>
			<point x="463" y="699" type="line"/>
			<point x="463" y="0" type="line"/>
			<point x="538" y="0" type="line"/>
			<point x="538" y="699" type="line"/>
		</contour>
		<contour>
			<point x="605" y="529" type="curve"/>
			<point x="637" y="506" type="line"/>
			<point x="687" y="570"/>
			<point x="702" y="598"/>
			<point x="702" y="631" type="curve"/>
			<point x="702" y="671"/>
			<point x="682" y="699"/>
			<point x="650" y="699" type="curve"/>
			<point x="624" y="699"/>
			<point x="604" y="678"/>
			<point x="604" y="654" type="curve"/>
			<point x="604" y="629"/>
			<point x="624" y="608"/>
			<point x="649" y="608" type="curve"/>
			<point x="643" y="581"/>
			<point x="628" y="555"/>
		</contour>
	</outline>
</glyph>
<glyph name="caron" format="2">
	<advance width="334"/>
	<unicode hex="02C7"/>
	<anchor x="166" y="704" name="top"/>
	<anchor x="166" y="517" name="_top"/>
	<outline>
		<contour>
			<point x="31" y="713" type="line"/>
			<point x="131" y="576" type="line"/>
			<point x="201" y="576" type="line"/>
			<point x="303" y="713" type="line"/>
			<point x="245" y="713" type="line"/>
			<point x="166" y="627" type="line"/>
			<point x="88" y="713" type="line"/>
		</contour>
	</outline>
</glyph>
<glyph name="ring" format="2">
	<advance width="282"/>
	<unicode hex="02DA"/>
	<anchor x="141" y="704" name="top"/>
	<anchor x="141" y="517" name="_top"/>
	<outline>
		<contour>
			<point x="141" y="589" type="curve"/>
			<point x="141" y="589" type="line"/>
			<point x="198" y="589"/>
			<point x="244" y="635"/>
			<point x="244" y="692" type="curve"/>
			<point x="244" y="749"/>
			<point x="198" y="795"/>
			<point x="141" y="795" type="curve"/>
			<point x="84" y="795"/>
			<point x="38" y="749"/>
			<point x="38" y="692" type="curve"/>
			<point x="38" y="635"/>
			<point x="84" y="589"/>
		</contour>
		<contour>
			<point x="141" y="633" type="curve"/>
			<point x="141" y="633" type="line"/>
			<point x="109" y="633"/>
			<point x="82" y="660"/>
			<point x="82" y="692" type="curve"/>
			<point x="82" y="724"/>
			<point x="109" y="751"/>
			<point x="141" y="751" type="curve"/>
			<point x="173" y="751"/>
			<point x="200" y="724"/>
			<point x="200" y="692" type="curve"/>
			<point x="200" y="660"/>
			<point x="173" y="633"/>
		</contour>
	</outline>
</glyph>
<glyph name="emdash" format="2">
	<advance width="866"/>
	<unicode hex="2014"/>
	<outline>
		<contour>
			<point x="48" y="307" type="line"/>
			<point x="48" y="236" type="line"/>
			<point x="818" y="236" type="line"/>
			<point x="818" y="307" type="line"/>
		</contour>
	</outline>
</glyph>
<glyph name="perthousand" format="2">
	<advance width="1206"/>
	<unicode hex="2030"/>
	<outline>
		<contour>
			<point x="615" y="687" type="line"/>
			<point x="145" y="0" type="line"/>
			<point x="221" y="0" type="line"/>
			<point x="691" y="687" type="line"/>
		</contour>
		<contour>
			<point x="612" y="-10" type="curve"/>
			<point x="612" y="-10" type="line"/>
			<point x="705" y="-10"/>
			<point x="772" y="65"/>
			<point x="772" y="163" type="curve"/>
			<point x="772" y="256"/>
			<point x="708" y="334"/>
			<point x="613" y="334" type="curve"/>
			<point x="518" y="334"/>
			<point x="453" y="256"/>
			<point x="453" y="162" type="curve"/>
			<point x="453" y="64"/>
			<point x="520" y="-10"/>
		</contour>
		<contour>
			<point x="613" y="44" type="curve"/>
			<point x="613" y="44" type="line"/>
			<point x="556" y="44"/>
			<point x="516" y="95"/>
			<point x="516" y="163" type="curve"/>
			<point x="516" y="228"/>
			<point x="555" y="280"/>
			<point x="612" y="280" type="curve"/>
			<point x="668" y="280"/>
			<point x="709" y="229"/>
			<point x="709" y="162" type="curve"/>
			<point x="709" y="94"/>
			<point x="670" y="44"/>
		</contour>
		<contour>
			<point x="220" y="349" type="curve"/>
			<point x="220" y="349" type="line"/>
			<point x="314" y="349"/>
			<point x="380" y="424"/>
			<point x="380" y="521" type="curve"/>
			<point x="380" y="616"/>
			<point x="316" y="693"/>
			<point x="221" y="693" type="curve"/>
			<point x="128" y="693"/>
			<point x="61" y="618"/>
			<point x="61" y="519" type="curve"/>
			<point x="61" y="426"/>
			<point x="125" y="349"/>
		</contour>
		<contour>
			<point x="221" y="403" type="curve"/>
			<point x="221" y="403" type="line"/>
			<point x="166" y="403"/>
			<point x="124" y="454"/>
			<point x="124" y="520" type="curve"/>
			<point x="124" y="589"/>
			<point x="164" y="639"/>
			<point x="220" y="639" type="curve"/>
			<point x="276" y="639"/>
			<point x="317" y="588"/>
			<point x="317" y="520" type="curve"/>
			<point x="317" y="453"/>
			<point x="277" y="403"/>
		</contour>
		<contour>
			<point x="985" y="-10" type="curve"/>
			<point x="985" y="-10" type="line"/>
			<point x="1078" y="-10"/>
			<point x="1145" y="65"/>
			<point x="1145" y="163" type="curve"/>
			<point x="1145" y="256"/>
			<point x="1081" y="334"/>
			<point x="986" y="334" type="curve"/>
			<point x="891" y="334"/>
			<point x="826" y="256"/>
			<point x="826" y="162" type="curve"/>
			<point x="826" y="64"/>
			<point x="893" y="-10"/>
		</contour>
		<contour>
			<point x="986" y="44" type="curve"/>
			<point x="986" y="44" type="line"/>
			<point x="929" y="44"/>
			<point x="889" y="95"/>
			<point x="889" y="163" type="curve"/>
			<point x="889" y="228"/>
			<point x="928" y="280"/>
			<point x="985" y="280" type="curve"/>
			<point x="1041" y="280"/>
			<point x="1082" y="229"/>
			<point x="1082" y="162" type="curve"/>
			<point x="1082" y="94"/>
			<point x="1043" y="44"/>
		</contour>
	</outline>
</glyph>
<glyph name="lowercase_loop" format="2">
	<advance width="555"/>
	<anchor x="85" y="259" name="_loop_right"/>
	<outline>
		<contour>
			<point x="273" y="-12" type="curve"/>
			<point x="273" y="-12" type="line"/>
			<point x="409" y="-12"/>
			<point x="511" y="100"/>
			<point x="511" y="259" type="curve"/>
			<point x="511" y="417"/>
			<point x="409" y="529"/>
			<point x="273" y="529" type="curve"/>
			<point x="136" y="529"/>
			<point x="46" y="417"/>
			<point x="46" y="259" type="curve"/>
			<point x="46" y="100"/>
			<point x="136" y="-12"/>
		</contour>
		<contour>
			<point x="259" y="55" type="curve"/>
			<point x="259" y="55" type="line"/>
			<point x="157" y="55"/>
			<point x="85" y="140"/>
			<point x="85" y="259" type="curve"/>
			<point x="85" y="378"/>
			<point x="157" y="462"/>
			<point x="259" y="462" type="curve"/>
			<point x="360" y="462"/>
			<point x="432" y="378"/>
			<point x="432" y="259" type="curve"/>
			<point x="432" y="140"/>
			<point x="360" y="55"/>
		</contour>
	</outline>
</glyph>
<glyph name="lowercase_m_shoulder" format="2">
	<advance width="444"/>
	<anchor x="36" y="329" name="_shoulder"/>
	<anchor x="370" y="329" name="shoulder"/>
	<outline>
		<contour>
			<point x="295" y="319" type="curve"/>
			<point x="295" y="0" type="line"/>
			<point x="370" y="0" type="line"/>
			<point x="370" y="329" type="line" smooth="yes"/>
			<point x="370" y="446"/>
			<point x="294" y="529"/>
			<point x="186" y="529" type="curve"/>
			<point x="94" y="529"/>
			<point x="25" y="467"/>
			<point x="20" y="379" type="curve"/>
			<point x="36" y="329" type="line"/>
			<point x="36" y="407"/>
			<point x="94" y="462"/>
			<point x="176" y="462" type="curve"/>
			<point x="246" y="462"/>
			<point x="295" y="403"/>
		</contour>
	</outline>
</glyph>
<glyph name="thorn_stem" format="2">
	<advance width="251"/>
	<anchor x="163" y="259" name="loop_right"/>
	<outline>
		<contour>
			<point x="88" y="699" type="line"/>
			<point x="88" y="-172" type="line"/>
			<point x="163" y="-172" type="line"/>
			<point x="163" y="699" type="line"/>
		</contour>
	</outline>
</glyph>
